<svg version="1.1" id="Layer_1" xmlns="http://www.w3.org/2000/svg" xmlns:xlink="http://www.w3.org/1999/xlink" x="0px" y="0px"
	 width="100%" viewBox="0 0 847 325" enable-background="new 0 0 847 325" xml:space="preserve">
<path fill="#FFFFFF" opacity="1.000000" stroke="none" 
	d="
M622.604675,190.655807 
	C627.427856,185.826324 632.401123,181.136093 637.040710,176.136276 
	C644.957153,167.605179 644.817017,155.397934 636.949951,147.298737 
	C629.224670,139.345474 617.112671,138.662872 608.546753,146.201294 
	C603.319702,150.801407 598.709778,156.102905 593.357605,161.079803 
	C593.054382,161.148056 592.757690,161.237747 591.946106,160.801819 
	C587.252686,156.084930 582.694336,151.223465 577.835327,146.683792 
	C569.803650,139.179871 557.864746,139.111603 549.674194,146.280884 
	C542.064453,152.941772 540.194153,165.332001 546.639771,173.408401 
	C551.659302,179.698013 558.024719,184.913498 563.944336,191.229050 
	C573.715088,200.670578 583.485840,210.112106 592.607239,218.926163 
	C602.286072,209.698166 612.142395,200.300964 622.604675,190.655807 
M269.299744,171.715347 
	C276.194550,137.495529 256.041840,106.693047 222.064758,100.472427 
	C201.613403,96.728134 182.231033,100.116608 166.757797,114.887634 
	C147.770355,133.013397 143.463089,155.591217 151.731827,179.963013 
	C159.809448,203.771484 177.737564,216.213654 202.464233,218.790421 
	C235.342819,222.216690 262.445221,203.275146 269.299744,171.715347 
M714.670776,99.209824 
	C708.290588,100.295532 701.673523,100.640274 695.570190,102.591782 
	C664.725586,112.454208 648.534729,145.869659 658.645020,178.039581 
	C668.297913,208.753693 699.652588,225.345367 733.013916,217.392685 
	C767.106323,209.265732 786.355835,174.071106 775.371887,139.947952 
	C767.045471,114.081024 745.323792,99.264709 714.670776,99.209824 
M324.980255,167.475296 
	C325.973083,166.585800 326.974731,165.705902 327.957367,164.805313 
	C336.175781,157.273117 345.183655,150.423615 352.432526,142.051407 
	C365.315704,127.171822 356.338043,104.096603 336.797089,101.931519 
	C324.279510,100.544586 311.521637,101.282745 298.870605,101.159355 
	C290.083099,101.073639 281.294098,101.142868 272.265686,101.142868 
	C272.265686,109.015793 272.265686,116.399269 272.265686,124.167862 
	C274.365601,124.167862 276.166412,124.167839 277.967224,124.167870 
	C292.797150,124.168098 307.627625,124.110748 322.456360,124.242737 
	C324.274384,124.258911 326.083374,125.288742 327.896545,125.848831 
	C326.985687,127.433037 326.402985,129.379974 325.113953,130.546173 
	C309.794922,144.405106 294.347992,158.122543 278.982330,171.930176 
	C269.626740,180.337128 266.839691,190.819794 270.939484,201.625320 
	C274.635284,211.366028 283.700470,216.967484 296.016174,216.991089 
	C315.511627,217.028458 335.007202,217.007431 354.502747,216.989426 
	C355.932526,216.988113 357.362183,216.811829 358.769348,216.718384 
	C358.769348,209.021301 358.769348,201.751831 358.769348,193.998199 
	C356.927155,193.998199 355.308380,193.998184 353.689575,193.998184 
	C337.193359,193.998154 320.696869,194.038773 304.201294,193.935791 
	C302.534668,193.925385 300.873474,193.047958 299.209747,192.572891 
	C300.118958,190.967438 300.695587,188.996338 301.992340,187.816971 
	C309.385773,181.092545 316.950806,174.556808 324.980255,167.475296 
M402.565735,124.612938 
	C415.516144,124.612938 428.466522,124.612938 441.577820,124.612938 
	C441.577820,116.543800 441.577820,109.014519 441.577820,101.140900 
	C426.753876,101.140900 412.290283,101.132149 397.826691,101.148827 
	C395.163727,101.151901 392.480560,101.066612 389.841187,101.346687 
	C367.256866,103.743187 353.311188,125.294296 361.406189,145.801025 
	C363.234436,150.432388 366.832520,154.365097 369.699890,158.747772 
	C369.433563,159.048309 369.016479,159.565033 368.552582,160.035629 
	C359.187653,169.535660 356.052917,180.831726 360.206787,193.458130 
	C364.388855,206.170380 373.551880,214.304779 386.804657,216.219635 
	C395.625519,217.494141 404.728424,216.888214 413.706604,216.981873 
	C422.976929,217.078598 432.249084,217.003372 441.642212,217.003372 
	C441.642212,209.043533 441.642212,201.647659 441.642212,193.830231 
	C428.391876,193.830231 415.435669,193.873520 402.480225,193.794266 
	C399.839508,193.778107 397.140869,193.567169 394.575287,192.980698 
	C389.427216,191.803894 386.128815,187.431747 385.979767,182.105347 
	C385.835144,176.937195 389.047058,172.279282 394.130585,170.928268 
	C396.660461,170.255920 399.376038,170.063934 402.010742,170.042465 
	C413.278625,169.950684 424.547699,170.003372 435.853088,170.003372 
	C435.853088,162.006927 435.853088,154.612961 435.853088,146.830292 
	C424.900604,146.830292 414.273865,146.872696 403.647888,146.804230 
	C400.499542,146.783936 397.283264,146.799484 394.221466,146.184540 
	C388.941833,145.124191 385.811279,140.677231 385.978119,135.247620 
	C386.130859,130.278107 390.126617,125.622169 395.113342,124.879311 
	C397.239349,124.562599 399.431274,124.688080 402.565735,124.612938 
M522.365417,217.002747 
	C523.665649,216.235352 526.056824,215.517136 526.093994,214.692810 
	C526.399048,207.926788 526.266113,201.141037 526.266113,193.830597 
	C513.464233,193.830597 501.182831,193.870468 488.902008,193.801895 
	C485.921997,193.785263 482.889465,193.697327 479.976471,193.141830 
	C474.025970,192.007065 470.646118,187.816330 470.531219,181.983948 
	C470.420410,176.358200 473.886749,171.898590 479.727844,170.581741 
	C481.968811,170.076538 484.345917,170.037766 486.662079,170.026947 
	C497.929871,169.974304 509.198029,170.003159 520.534424,170.003159 
	C520.534424,161.989288 520.534424,154.592896 520.534424,146.829544 
	C508.228821,146.829544 496.255432,146.857239 484.282227,146.820343 
	C475.494415,146.793274 470.672180,142.896301 470.534119,135.827255 
	C470.398987,128.907700 475.468048,124.665970 484.049133,124.624512 
	C493.211914,124.580238 502.375061,124.613182 511.538055,124.612656 
	C516.318237,124.612381 521.098389,124.612610 525.995483,124.612610 
	C525.995483,116.513710 525.995483,109.094582 525.995483,101.426529 
	C524.431702,101.319130 523.137756,101.145943 521.844910,101.154236 
	C505.524445,101.258873 489.143738,100.571640 472.902527,101.769318 
	C459.605682,102.749870 450.001984,110.823341 445.452515,123.444962 
	C441.011810,135.764847 443.726959,147.020538 453.050629,156.478455 
	C453.597107,157.032776 453.944305,157.783478 454.344330,158.383011 
	C446.378754,168.148590 443.980499,172.687546 443.208832,179.354065 
	C440.967834,198.714355 456.220184,216.451065 475.911804,216.887421 
	C491.065125,217.223206 506.231110,216.985687 522.365417,217.002747 
M73.303810,180.063370 
	C87.208786,214.250626 118.349937,219.859802 148.789185,216.240570 
	C148.789185,208.958450 148.789185,201.689941 148.789185,193.989304 
	C143.072861,193.989304 137.609894,194.123230 132.155380,193.965485 
	C111.402740,193.365311 98.056847,180.032639 97.731323,159.693405 
	C97.409813,139.604919 110.132683,126.050697 130.766861,124.799782 
	C136.698578,124.440170 142.670578,124.744652 148.663589,124.744652 
	C148.663589,116.496407 148.663589,108.957886 148.663589,101.464920 
	C92.217499,96.517036 57.839275,132.118332 73.303810,180.063370 
M626.472656,135.751358 
	C630.070251,135.751358 633.667847,135.751358 637.683228,135.751358 
	C637.683228,130.884964 637.693359,126.604424 637.677246,122.323982 
	C637.672241,120.998466 637.713745,119.656982 637.533386,118.350502 
	C636.432434,110.374626 630.145752,104.690765 622.353394,104.557243 
	C615.111267,104.433151 607.891296,109.807388 607.068420,116.963493 
	C606.376587,122.980042 606.926208,129.139328 606.926208,135.099335 
	C607.493713,135.379028 607.778442,135.640366 608.065613,135.643036 
	C613.871155,135.696823 619.677002,135.720932 626.472656,135.751358 
M575.910645,110.723915 
	C569.583313,103.940239 561.821838,102.641685 554.946533,107.216469 
	C548.706482,111.368568 546.316406,119.425514 549.335510,126.131531 
	C553.053101,134.389099 562.285339,137.976318 570.143127,134.216446 
	C578.735718,130.104980 581.334351,120.544373 575.910645,110.723915 
M120.918144,264.269440 
	C120.232864,265.902710 119.547585,267.535980 118.529533,269.962341 
	C115.933159,261.975037 113.481468,254.930511 111.395737,247.779266 
	C110.522667,244.785782 109.159637,244.157074 106.323708,245.355804 
	C109.376259,254.827621 112.299583,264.162354 115.458382,273.416687 
	C115.934586,274.811829 117.509499,275.832001 118.576195,277.025604 
	C119.653091,275.798737 121.168259,274.744934 121.732620,273.315643 
	C124.489723,266.333191 126.993141,259.250549 130.026825,251.006073 
	C133.308273,259.734680 136.015106,267.157440 138.948074,274.489716 
	C139.374542,275.555878 140.792953,276.614380 141.925888,276.853180 
	C142.540512,276.982758 143.937103,275.516907 144.272324,274.530060 
	C147.572876,264.813385 150.724503,255.046173 153.939911,245.227509 
	C149.878006,244.896942 149.840469,244.884476 148.800034,248.016083 
	C146.470184,255.028717 144.181488,262.055023 141.507080,270.199310 
	C138.420258,261.945679 135.844757,254.787170 133.007462,247.733994 
	C132.520599,246.523712 131.024048,245.245346 129.790115,244.992340 
	C129.079697,244.846649 127.558670,246.531952 127.093872,247.674347 
	C124.968300,252.898727 123.087242,258.222595 120.918144,264.269440 
M504.558777,268.005005 
	C507.795105,263.163666 511.031433,258.322327 515.067139,252.285217 
	C515.067139,261.448090 515.067139,269.049225 515.067139,276.993988 
	C516.547058,276.886078 517.724426,276.800232 518.817322,276.720551 
	C518.817322,265.897614 518.817322,255.467484 518.817322,243.643036 
	C510.021271,248.153183 508.604584,257.766266 502.320557,263.206207 
	C498.729431,257.819855 495.369690,252.468063 491.639801,247.388031 
	C490.603058,245.976059 488.469543,245.369385 486.118500,243.961716 
	C486.118500,254.898972 486.214081,264.218109 486.065674,273.533356 
	C486.015015,276.714325 486.969910,277.790161 490.619751,276.360138 
	C490.619751,269.236542 490.619751,261.932404 490.619751,254.628250 
	C494.135193,258.221771 496.482147,262.174927 499.275391,265.782532 
	C500.261719,267.056427 502.338318,267.486145 504.558777,268.005005 
M380.255951,263.218597 
	C380.247681,258.671387 378.632538,254.817810 374.217804,253.231842 
	C369.431763,251.512451 365.008850,252.680374 362.286682,256.064789 
	C358.945496,254.794632 356.048737,252.958862 353.033356,252.737167 
	C349.443298,252.473251 345.751404,253.594635 342.041443,254.124680 
	C342.041443,261.238312 342.041443,268.993713 342.041443,276.749115 
	C342.488129,277.006317 342.934784,277.263550 343.381470,277.520752 
	C344.176056,276.348877 345.534271,275.232544 345.656219,273.994415 
	C345.981140,270.695221 345.685242,267.340576 345.799408,264.013580 
	C345.963074,259.244080 348.604004,256.278809 352.504150,256.274048 
	C356.401764,256.269287 358.838593,259.138275 359.012024,264.156464 
	C359.126984,267.483459 359.158752,270.822113 359.018311,274.146667 
	C358.870392,277.649200 360.586578,277.397644 363.023438,276.531342 
	C363.023438,274.490417 363.022827,272.667511 363.023590,270.844604 
	C363.024445,268.846130 362.996277,266.847076 363.033997,264.849304 
	C363.137482,259.368774 365.704376,256.226410 369.966705,256.317993 
	C374.054840,256.405853 376.175232,259.124817 376.343781,264.796570 
	C376.461578,268.760437 376.366516,272.730652 376.366516,276.790588 
	C377.887817,276.790588 378.985992,276.790588 380.284149,276.790588 
	C380.284149,272.404968 380.284149,268.248016 380.255951,263.218597 
M655.355896,248.355179 
	C658.518005,250.230072 661.664978,252.131348 664.849182,253.967911 
	C666.281860,254.794205 667.789124,255.491257 670.254700,256.755829 
	C666.385925,246.855240 659.194031,242.761581 650.812134,244.555283 
	C642.692688,246.292816 637.690613,252.977661 637.970520,261.716888 
	C638.226257,269.701294 643.550720,276.230072 650.764221,277.404449 
	C659.810120,278.877136 667.116577,274.639587 669.501587,265.759613 
	C667.763855,266.281616 665.930542,266.951385 664.893860,268.254730 
	C661.330322,272.734863 655.172729,274.741913 649.716980,272.839874 
	C645.041199,271.209747 641.984070,266.277313 642.100159,260.550751 
	C642.243408,253.486221 646.229736,249.528183 655.355896,248.355179 
M302.354279,272.868774 
	C303.718140,270.736877 305.082031,268.604980 306.445892,266.473083 
	C305.974396,266.033142 305.502869,265.593201 305.031372,265.153259 
	C303.568848,266.257690 301.807648,267.123657 300.699707,268.511261 
	C297.340881,272.717926 291.284210,274.647919 285.920502,272.895081 
	C281.330383,271.395050 278.254272,266.830902 278.100800,261.292603 
	C277.944794,255.664536 280.993439,250.859955 285.813782,249.137146 
	C291.400055,247.140594 296.681244,248.805954 300.512390,253.369766 
	C301.645081,254.719070 303.549286,255.420685 305.099945,256.419098 
	C302.783508,247.242065 295.838409,242.994919 287.540466,244.395905 
	C279.536804,245.747177 274.075684,252.171188 273.965149,260.423126 
	C273.873199,267.286377 276.346191,272.937988 282.725159,275.941254 
	C289.463501,279.113678 295.963562,278.008362 302.354279,272.868774 
M563.450928,273.184509 
	C561.589111,271.466217 559.727295,269.747925 557.865479,268.029633 
	C558.167480,267.550507 558.469482,267.071350 558.771484,266.592224 
	C565.335266,266.592224 571.899048,266.592224 578.441101,266.592224 
	C578.550232,258.397919 574.806824,253.480301 568.236389,252.672974 
	C561.347473,251.826508 555.967041,255.429398 554.409363,261.931976 
	C552.946960,268.036774 556.208496,274.849792 561.530457,276.807068 
	C568.078186,279.215210 574.608276,276.600159 578.287109,269.157806 
	C575.747925,270.198212 574.148132,271.021667 572.451904,271.510468 
	C569.726562,272.295807 566.937500,272.859955 563.450928,273.184509 
M254.274475,255.171051 
	C247.182846,250.735992 239.139465,252.194214 235.703201,258.537903 
	C232.139954,265.116028 234.617676,273.625610 240.940216,276.523865 
	C247.528732,279.544067 255.278198,276.556854 257.756439,269.247559 
	C253.698395,270.970520 250.329071,273.265900 246.734879,273.700165 
	C242.581253,274.202026 239.109634,272.047058 238.551498,266.529175 
	C245.364426,266.529175 251.928223,266.529175 260.103180,266.529175 
	C258.002869,262.226471 256.404999,258.953064 254.274475,255.171051 
M187.732010,271.510834 
	C194.014771,280.209961 204.990982,279.642395 210.389481,269.039185 
	C207.593384,270.296204 205.665939,270.805664 204.165924,271.900665 
	C198.549210,276.000885 191.923309,273.611694 190.770935,266.450470 
	C197.408936,266.450470 203.971405,266.450470 210.529846,266.450470 
	C210.242966,255.404358 202.376083,249.774734 193.265640,253.596176 
	C186.896667,256.267670 184.737656,262.534637 187.732010,271.510834 
M744.059021,257.537415 
	C739.435303,252.413315 733.604675,251.123276 728.066528,253.999023 
	C723.272034,256.488647 720.862488,262.218781 722.136047,268.102203 
	C723.321899,273.580414 727.512878,277.037506 733.478149,277.458252 
	C739.213257,277.862762 743.427673,275.247192 745.530884,269.224731 
	C741.445496,270.972504 738.094421,273.257294 734.508606,273.719025 
	C730.279236,274.263550 726.933838,271.928375 726.093872,266.607422 
	C732.882446,266.607422 739.437012,266.607422 747.018860,266.607422 
	C746.029053,263.312317 745.252930,260.728394 744.059021,257.537415 
M536.091309,273.697205 
	C532.762817,272.648041 530.112183,271.016449 530.102966,266.412109 
	C536.818848,266.412109 543.353455,266.412109 549.863281,266.412109 
	C549.967163,258.237061 546.096985,253.345062 539.428589,252.675049 
	C532.758362,252.004852 527.216553,255.773880 525.990295,261.814545 
	C524.620605,268.562347 527.919250,275.203979 533.487549,276.909607 
	C540.348938,279.011322 546.465088,276.397217 549.416260,269.249512 
	C547.169556,270.166870 545.663513,270.843140 544.114502,271.400177 
	C541.712158,272.264130 539.280579,273.046844 536.091309,273.697205 
M167.390366,253.031372 
	C165.899033,253.674942 164.407715,254.318512 162.343872,255.209152 
	C162.343872,250.973373 162.343872,247.090714 162.343872,243.208054 
	C161.807053,242.961594 161.270218,242.715134 160.733398,242.468658 
	C159.998795,243.539948 158.643127,244.601471 158.626129,245.684006 
	C158.464340,255.984680 158.529617,266.288910 158.529617,276.799652 
	C159.901459,276.799652 161.003525,276.799652 162.383591,276.799652 
	C162.383591,272.657623 162.232956,268.670898 162.420242,264.700134 
	C162.677002,259.256378 165.754700,256.096405 170.274948,256.282288 
	C174.390411,256.451538 176.686996,259.295135 176.841873,264.692841 
	C176.955566,268.655701 176.864166,272.624420 176.864166,276.590546 
	C177.309998,276.874268 177.755844,277.157990 178.201675,277.441742 
	C179.067932,276.357544 180.583572,275.327972 180.680237,274.179047 
	C180.985840,270.547058 180.991241,266.851501 180.693192,263.214935 
	C180.032196,255.150284 176.335098,252.203827 167.390366,253.031372 
M689.853638,276.249481 
	C692.291199,272.591949 694.456726,278.072113 696.982910,276.636536 
	C696.982910,271.312744 697.215942,266.153503 696.917786,261.025116 
	C696.616394,255.840210 692.718506,252.766754 686.976440,252.598969 
	C681.423584,252.436707 678.023621,254.903076 676.962158,260.465302 
	C680.415527,258.870789 683.378601,256.766876 686.613403,256.192413 
	C690.806458,255.447845 692.805359,258.127899 692.554199,262.982178 
	C690.745728,262.982178 688.921997,262.947632 687.100220,262.991486 
	C685.107971,263.039398 683.084595,262.963867 681.133423,263.291504 
	C677.633789,263.879181 675.368958,266.022156 675.175049,269.629639 
	C674.982483,273.211548 676.927307,275.932159 680.338379,276.633850 
	C683.156433,277.213470 686.202820,276.682617 689.853638,276.249481 
M415.179779,252.757965 
	C408.555145,254.446030 405.426453,257.581818 404.831970,263.129242 
	C404.203278,268.995819 406.431183,273.625580 411.090363,276.134705 
	C415.405853,278.458740 422.356476,277.637360 425.993011,274.373535 
	C429.838837,270.921906 431.015015,265.514496 429.069427,260.230225 
	C427.147552,255.010223 423.247040,252.759415 415.179779,252.757965 
M319.503113,277.065247 
	C320.821014,277.190369 322.142303,277.450775 323.456299,277.418213 
	C330.801086,277.236298 336.101379,271.734497 335.793823,264.692352 
	C335.474335,257.376373 330.146057,252.405182 322.783600,252.554031 
	C316.643097,252.678192 312.121582,256.166351 310.821808,261.782104 
	C309.250092,268.572784 311.817261,273.497650 319.503113,277.065247 
M612.580078,262.926086 
	C610.363525,261.994293 606.182861,262.191467 607.733826,258.586456 
	C608.388489,257.065002 612.772339,256.962158 615.511047,256.641846 
	C616.286133,256.551208 617.155334,258.117493 618.129333,258.656647 
	C619.305298,259.307587 620.638672,259.674164 622.441528,260.371887 
	C620.454407,253.434509 615.463135,250.741043 608.877014,253.134567 
	C606.569153,253.973297 603.865906,256.866547 603.572205,259.113007 
	C603.336365,260.916840 606.248779,263.405975 608.184265,265.115479 
	C609.314636,266.113922 611.259827,266.215576 612.856567,266.654755 
	C615.495850,267.380798 619.544006,267.467560 618.683960,271.194305 
	C617.787476,275.079193 613.710205,274.317871 610.649963,273.696716 
	C609.354797,273.433838 608.285461,272.108704 607.086792,271.306152 
	C605.962158,270.553192 604.802429,269.852722 603.022461,268.727142 
	C604.046570,276.126312 609.904907,279.338348 617.126526,276.858765 
	C619.398315,276.078735 622.279297,273.484375 622.530273,271.432800 
	C622.773376,269.445465 620.275269,266.801575 618.439636,264.996796 
	C617.262085,263.839050 615.104065,263.678589 612.580078,262.926086 
M397.794617,242.234787 
	C391.422241,243.694717 390.619049,244.722244 389.668488,252.748993 
	C388.120911,252.930237 386.539032,253.115494 384.957184,253.300751 
	C384.751526,253.795242 384.545868,254.289734 384.340210,254.784225 
	C386.146515,255.788452 387.952789,256.792694 390.031128,257.948151 
	C390.031128,263.019745 390.185730,268.499298 389.973816,273.964630 
	C389.844269,277.306488 391.344818,277.368927 394.082397,276.658447 
	C394.082397,270.046417 394.082397,263.614441 394.082397,257.224579 
	C402.176514,256.425568 402.176514,256.425568 401.479980,252.813507 
	C399.070129,252.813507 396.610565,252.813507 394.270660,252.813507 
	C392.695526,245.281143 398.435760,246.281799 402.706726,245.595062 
	C402.805969,245.056305 402.905212,244.517532 403.004486,243.978775 
	C401.535034,243.371201 400.065552,242.763641 397.794617,242.234787 
M590.349426,266.337738 
	C590.349426,263.361786 590.349426,260.385834 590.349426,257.457184 
	C597.841125,256.064331 597.841125,256.064331 597.448792,252.846832 
	C595.225037,252.846832 592.959229,252.846832 590.656433,252.846832 
	C590.399780,250.786057 590.183289,249.048370 589.913818,246.884552 
	C588.794861,247.345993 587.557800,247.552322 587.505066,247.925842 
	C587.072571,250.989471 586.233276,253.434250 582.381592,253.195099 
	C582.130859,253.179550 581.496338,254.519196 581.590515,255.145752 
	C581.682251,255.756317 582.384460,256.540924 582.990295,256.748932 
	C584.011108,257.099365 585.167664,257.054352 586.506531,257.202118 
	C586.506531,260.499146 586.477844,263.472931 586.511902,266.445953 
	C586.613708,275.336670 589.308838,277.697968 599.839111,276.386139 
	C597.896240,274.803894 596.865356,273.253510 595.865784,273.273407 
	C591.544678,273.359497 590.390991,270.934601 590.349426,266.337738 
M457.403381,270.643829 
	C458.422882,275.322754 461.508667,276.998840 466.086639,277.101562 
	C469.396851,277.175903 469.812378,275.922852 468.669464,273.301056 
	C460.709595,272.786438 459.199402,269.219330 461.741974,257.056854 
	C468.690308,256.636993 468.690308,256.636993 468.379089,252.768951 
	C466.011292,252.768951 463.604736,252.768951 461.325989,252.768951 
	C461.104828,250.582718 460.931946,248.873627 460.693268,246.513824 
	C457.829468,249.490128 455.477051,251.934921 452.296356,255.240570 
	C453.288300,255.821442 454.966644,256.804260 457.260193,258.147339 
	C457.260193,261.535767 457.260193,265.667938 457.403381,270.643829 
M222.728714,254.661530 
	C220.859894,254.145203 218.991074,253.628876 216.932343,253.060089 
	C216.932343,261.146790 216.932343,268.894409 216.932343,276.977570 
	C218.257248,276.867767 219.438095,276.769897 220.768860,276.659576 
	C220.768860,274.432373 220.765747,272.620850 220.769745,270.809326 
	C220.773773,268.988556 220.728348,267.165497 220.803299,265.347473 
	C221.047501,259.424805 222.513702,257.927765 228.234741,256.759491 
	C229.358383,256.530029 230.208908,254.963150 231.185394,254.013092 
	C230.811172,253.568176 230.436935,253.123245 230.062714,252.678329 
	C227.845749,253.158401 225.628799,253.638474 222.728714,254.661530 
M704.148621,258.706299 
	C704.148804,263.845642 704.246277,268.987488 704.115173,274.123474 
	C704.027161,277.572235 705.667725,277.429840 707.991943,276.588593 
	C708.769470,258.097382 708.769470,258.097382 718.324768,256.198029 
	C718.080200,255.158524 717.713013,253.217499 717.613708,253.231110 
	C714.473999,253.661331 711.360291,254.281418 708.039246,254.911224 
	C707.518311,254.513504 706.258850,253.551895 704.148621,251.940781 
	C704.148621,254.808685 704.148621,256.287720 704.148621,258.706299 
M445.084869,257.085327 
	C447.115295,256.380432 451.549774,258.213318 449.229767,252.408981 
	C446.105713,253.392975 443.053619,254.354294 440.200592,255.252914 
	C439.239044,254.545120 437.995850,253.630005 436.228241,252.328888 
	C436.228241,261.287445 436.228241,269.037109 436.228241,276.786774 
	C436.656860,277.048035 437.085449,277.309265 437.514069,277.570526 
	C438.330902,276.410858 439.705078,275.317719 439.853119,274.078186 
	C440.204956,271.132751 439.416534,267.973419 440.140076,265.172028 
	C440.858521,262.390411 442.862305,259.940735 445.084869,257.085327 
z"/>
<path fill="#FE129D" opacity="1.000000" stroke="none" 
	d="
M269.206024,172.128693 
	C262.445221,203.275146 235.342819,222.216690 202.464233,218.790421 
	C177.737564,216.213654 159.809448,203.771484 151.731827,179.963013 
	C143.463089,155.591217 147.770355,133.013397 166.757797,114.887634 
	C182.231033,100.116608 201.613403,96.728134 222.064758,100.472427 
	C256.041840,106.693047 276.194550,137.495529 269.206024,172.128693 
M177.779068,171.542023 
	C185.537384,198.928146 218.097824,201.331558 232.479538,186.002548 
	C241.685715,176.189972 244.419525,164.218338 241.979462,151.267227 
	C239.540298,138.320938 232.720428,128.522491 219.467712,124.545242 
	C206.777847,120.736916 195.066986,122.997368 185.888351,132.596924 
	C175.589569,143.368011 173.980698,156.649826 177.779068,171.542023 
z"/>
<path fill="#FE129D" opacity="1.000000" stroke="none" 
	d="
M715.137085,99.195023 
	C745.323792,99.264709 767.045471,114.081024 775.371887,139.947952 
	C786.355835,174.071106 767.106323,209.265732 733.013916,217.392685 
	C699.652588,225.345367 668.297913,208.753693 658.645020,178.039581 
	C648.534729,145.869659 664.725586,112.454208 695.570190,102.591782 
	C701.673523,100.640274 708.290588,100.295532 715.137085,99.195023 
M743.482239,136.084045 
	C731.257385,120.107719 707.850647,118.001923 693.889709,132.312637 
	C682.687927,143.795105 681.431091,158.067627 685.934448,172.808945 
	C689.706909,185.157776 698.437622,192.940430 711.201843,194.854187 
	C724.890198,196.906464 737.009949,193.052444 744.408508,180.617874 
	C753.025391,166.135666 752.734741,151.227631 743.482239,136.084045 
z"/>
<path fill="#FE129D" opacity="1.000000" stroke="none" 
	d="
M324.718903,167.716125 
	C316.950806,174.556808 309.385773,181.092545 301.992340,187.816971 
	C300.695587,188.996338 300.118958,190.967438 299.209747,192.572891 
	C300.873474,193.047958 302.534668,193.925385 304.201294,193.935791 
	C320.696869,194.038773 337.193359,193.998154 353.689575,193.998184 
	C355.308380,193.998184 356.927155,193.998199 358.769348,193.998199 
	C358.769348,201.751831 358.769348,209.021301 358.769348,216.718384 
	C357.362183,216.811829 355.932526,216.988113 354.502747,216.989426 
	C335.007202,217.007431 315.511627,217.028458 296.016174,216.991089 
	C283.700470,216.967484 274.635284,211.366028 270.939484,201.625320 
	C266.839691,190.819794 269.626740,180.337128 278.982330,171.930176 
	C294.347992,158.122543 309.794922,144.405106 325.113953,130.546173 
	C326.402985,129.379974 326.985687,127.433037 327.896545,125.848831 
	C326.083374,125.288742 324.274384,124.258911 322.456360,124.242737 
	C307.627625,124.110748 292.797150,124.168098 277.967224,124.167870 
	C276.166412,124.167839 274.365601,124.167862 272.265686,124.167862 
	C272.265686,116.399269 272.265686,109.015793 272.265686,101.142868 
	C281.294098,101.142868 290.083099,101.073639 298.870605,101.159355 
	C311.521637,101.282745 324.279510,100.544586 336.797089,101.931519 
	C356.338043,104.096603 365.315704,127.171822 352.432526,142.051407 
	C345.183655,150.423615 336.175781,157.273117 327.957367,164.805313 
	C326.974731,165.705902 325.973083,166.585800 324.718903,167.716125 
z"/>
<path fill="#FE139D" opacity="1.000000" stroke="none" 
	d="
M402.079468,124.612778 
	C399.431274,124.688080 397.239349,124.562599 395.113342,124.879311 
	C390.126617,125.622169 386.130859,130.278107 385.978119,135.247620 
	C385.811279,140.677231 388.941833,145.124191 394.221466,146.184540 
	C397.283264,146.799484 400.499542,146.783936 403.647888,146.804230 
	C414.273865,146.872696 424.900604,146.830292 435.853088,146.830292 
	C435.853088,154.612961 435.853088,162.006927 435.853088,170.003372 
	C424.547699,170.003372 413.278625,169.950684 402.010742,170.042465 
	C399.376038,170.063934 396.660461,170.255920 394.130585,170.928268 
	C389.047058,172.279282 385.835144,176.937195 385.979767,182.105347 
	C386.128815,187.431747 389.427216,191.803894 394.575287,192.980698 
	C397.140869,193.567169 399.839508,193.778107 402.480225,193.794266 
	C415.435669,193.873520 428.391876,193.830231 441.642212,193.830231 
	C441.642212,201.647659 441.642212,209.043533 441.642212,217.003372 
	C432.249084,217.003372 422.976929,217.078598 413.706604,216.981873 
	C404.728424,216.888214 395.625519,217.494141 386.804657,216.219635 
	C373.551880,214.304779 364.388855,206.170380 360.206787,193.458130 
	C356.052917,180.831726 359.187653,169.535660 368.552582,160.035629 
	C369.016479,159.565033 369.433563,159.048309 369.699890,158.747772 
	C366.832520,154.365097 363.234436,150.432388 361.406189,145.801025 
	C353.311188,125.294296 367.256866,103.743187 389.841187,101.346687 
	C392.480560,101.066612 395.163727,101.151901 397.826691,101.148827 
	C412.290283,101.132149 426.753876,101.140900 441.577820,101.140900 
	C441.577820,109.014519 441.577820,116.543800 441.577820,124.612938 
	C428.466522,124.612938 415.516144,124.612938 402.079468,124.612778 
z"/>
<path fill="#FE129D" opacity="1.000000" stroke="none" 
	d="
M521.878418,217.002930 
	C506.231110,216.985687 491.065125,217.223206 475.911804,216.887421 
	C456.220184,216.451065 440.967834,198.714355 443.208832,179.354065 
	C443.980499,172.687546 446.378754,168.148590 454.344330,158.383011 
	C453.944305,157.783478 453.597107,157.032776 453.050629,156.478455 
	C443.726959,147.020538 441.011810,135.764847 445.452515,123.444962 
	C450.001984,110.823341 459.605682,102.749870 472.902527,101.769318 
	C489.143738,100.571640 505.524445,101.258873 521.844910,101.154236 
	C523.137756,101.145943 524.431702,101.319130 525.995483,101.426529 
	C525.995483,109.094582 525.995483,116.513710 525.995483,124.612610 
	C521.098389,124.612610 516.318237,124.612381 511.538055,124.612656 
	C502.375061,124.613182 493.211914,124.580238 484.049133,124.624512 
	C475.468048,124.665970 470.398987,128.907700 470.534119,135.827255 
	C470.672180,142.896301 475.494415,146.793274 484.282227,146.820343 
	C496.255432,146.857239 508.228821,146.829544 520.534424,146.829544 
	C520.534424,154.592896 520.534424,161.989288 520.534424,170.003159 
	C509.198029,170.003159 497.929871,169.974304 486.662079,170.026947 
	C484.345917,170.037766 481.968811,170.076538 479.727844,170.581741 
	C473.886749,171.898590 470.420410,176.358200 470.531219,181.983948 
	C470.646118,187.816330 474.025970,192.007065 479.976471,193.141830 
	C482.889465,193.697327 485.921997,193.785263 488.902008,193.801895 
	C501.182831,193.870468 513.464233,193.830597 526.266113,193.830597 
	C526.266113,201.141037 526.399048,207.926788 526.093994,214.692810 
	C526.056824,215.517136 523.665649,216.235352 521.878418,217.002930 
z"/>
<path fill="#FE129D" opacity="1.000000" stroke="none" 
	d="
M73.183571,179.688202 
	C57.839275,132.118332 92.217499,96.517036 148.663589,101.464920 
	C148.663589,108.957886 148.663589,116.496407 148.663589,124.744652 
	C142.670578,124.744652 136.698578,124.440170 130.766861,124.799782 
	C110.132683,126.050697 97.409813,139.604919 97.731323,159.693405 
	C98.056847,180.032639 111.402740,193.365311 132.155380,193.965485 
	C137.609894,194.123230 143.072861,193.989304 148.789185,193.989304 
	C148.789185,201.689941 148.789185,208.958450 148.789185,216.240570 
	C118.349937,219.859802 87.208786,214.250626 73.183571,179.688202 
z"/>
<path fill="#AC04D3" opacity="1.000000" stroke="none" 
	d="
M592.467468,161.348877 
	C592.757690,161.237747 593.054382,161.148056 593.662170,161.419510 
	C595.215820,163.267227 596.365601,164.872421 597.730347,166.267273 
	C605.792114,174.506546 613.903870,182.696945 621.998779,190.903778 
	C612.142395,200.300964 602.286072,209.698166 592.607239,218.926163 
	C583.485840,210.112106 573.715088,200.670578 564.144348,190.665588 
	C573.718689,180.517715 583.093079,170.933289 592.467468,161.348877 
z"/>
<path fill="#05AEED" opacity="1.000000" stroke="none" 
	d="
M592.206787,161.075348 
	C583.093079,170.933289 573.718689,180.517715 564.068237,190.354218 
	C558.024719,184.913498 551.659302,179.698013 546.639771,173.408401 
	C540.194153,165.332001 542.064453,152.941772 549.674194,146.280884 
	C557.864746,139.111603 569.803650,139.179871 577.835327,146.683792 
	C582.694336,151.223465 587.252686,156.084930 592.206787,161.075348 
z"/>
<path fill="#FE049B" opacity="1.000000" stroke="none" 
	d="
M622.301758,190.779800 
	C613.903870,182.696945 605.792114,174.506546 597.730347,166.267273 
	C596.365601,164.872421 595.215820,163.267227 593.894714,161.424286 
	C598.709778,156.102905 603.319702,150.801407 608.546753,146.201294 
	C617.112671,138.662872 629.224670,139.345474 636.949951,147.298737 
	C644.817017,155.397934 644.957153,167.605179 637.040710,176.136276 
	C632.401123,181.136093 627.427856,185.826324 622.301758,190.779800 
z"/>
<path fill="#FF089C" opacity="1.000000" stroke="none" 
	d="
M625.977722,135.751190 
	C619.677002,135.720932 613.871155,135.696823 608.065613,135.643036 
	C607.778442,135.640366 607.493713,135.379028 606.926208,135.099335 
	C606.926208,129.139328 606.376587,122.980042 607.068420,116.963493 
	C607.891296,109.807388 615.111267,104.433151 622.353394,104.557243 
	C630.145752,104.690765 636.432434,110.374626 637.533386,118.350502 
	C637.713745,119.656982 637.672241,120.998466 637.677246,122.323982 
	C637.693359,126.604424 637.683228,130.884964 637.683228,135.751358 
	C633.667847,135.751358 630.070251,135.751358 625.977722,135.751190 
z"/>
<path fill="#07B0ED" opacity="1.000000" stroke="none" 
	d="
M576.139404,111.019012 
	C581.334351,120.544373 578.735718,130.104980 570.143127,134.216446 
	C562.285339,137.976318 553.053101,134.389099 549.335510,126.131531 
	C546.316406,119.425514 548.706482,111.368568 554.946533,107.216469 
	C561.821838,102.641685 569.583313,103.940239 576.139404,111.019012 
z"/>
<path fill="#FFFFFF" opacity="1.000000" stroke="none" 
	d="
M121.018234,263.890076 
	C123.087242,258.222595 124.968300,252.898727 127.093872,247.674347 
	C127.558670,246.531952 129.079697,244.846649 129.790115,244.992340 
	C131.024048,245.245346 132.520599,246.523712 133.007462,247.733994 
	C135.844757,254.787170 138.420258,261.945679 141.507080,270.199310 
	C144.181488,262.055023 146.470184,255.028717 148.800034,248.016083 
	C149.840469,244.884476 149.878006,244.896942 153.939911,245.227509 
	C150.724503,255.046173 147.572876,264.813385 144.272324,274.530060 
	C143.937103,275.516907 142.540512,276.982758 141.925888,276.853180 
	C140.792953,276.614380 139.374542,275.555878 138.948074,274.489716 
	C136.015106,267.157440 133.308273,259.734680 130.026825,251.006073 
	C126.993141,259.250549 124.489723,266.333191 121.732620,273.315643 
	C121.168259,274.744934 119.653091,275.798737 118.576187,277.025604 
	C117.509499,275.832001 115.934586,274.811829 115.458382,273.416687 
	C112.299583,264.162354 109.376259,254.827621 106.323708,245.355804 
	C109.159637,244.157074 110.522667,244.785782 111.395737,247.779266 
	C113.481468,254.930511 115.933159,261.975037 118.529533,269.962341 
	C119.547585,267.535980 120.232864,265.902710 121.018234,263.890076 
z"/>
<path fill="#FFFFFF" opacity="1.000000" stroke="none" 
	d="
M504.237976,268.153137 
	C502.338318,267.486145 500.261719,267.056427 499.275391,265.782532 
	C496.482147,262.174927 494.135193,258.221771 490.619751,254.628250 
	C490.619751,261.932404 490.619751,269.236542 490.619751,276.360138 
	C486.969910,277.790161 486.015015,276.714325 486.065674,273.533356 
	C486.214081,264.218109 486.118500,254.898972 486.118500,243.961716 
	C488.469543,245.369385 490.603058,245.976059 491.639801,247.388031 
	C495.369690,252.468063 498.729431,257.819855 502.320557,263.206207 
	C508.604584,257.766266 510.021271,248.153183 518.817322,243.643036 
	C518.817322,255.467484 518.817322,265.897614 518.817322,276.720551 
	C517.724426,276.800232 516.547058,276.886078 515.067139,276.993988 
	C515.067139,269.049225 515.067139,261.448090 515.067139,252.285217 
	C511.031433,258.322327 507.795105,263.163666 504.237976,268.153137 
z"/>
<path fill="#FFFFFF" opacity="1.000000" stroke="none" 
	d="
M380.270050,263.654816 
	C380.284149,268.248016 380.284149,272.404968 380.284149,276.790588 
	C378.985992,276.790588 377.887817,276.790588 376.366516,276.790588 
	C376.366516,272.730652 376.461578,268.760437 376.343781,264.796570 
	C376.175232,259.124817 374.054840,256.405853 369.966705,256.317993 
	C365.704376,256.226410 363.137482,259.368774 363.033997,264.849304 
	C362.996277,266.847076 363.024445,268.846130 363.023590,270.844604 
	C363.022827,272.667511 363.023438,274.490417 363.023438,276.531342 
	C360.586578,277.397644 358.870392,277.649200 359.018311,274.146667 
	C359.158752,270.822113 359.126984,267.483459 359.012024,264.156464 
	C358.838593,259.138275 356.401764,256.269287 352.504150,256.274048 
	C348.604004,256.278809 345.963074,259.244080 345.799408,264.013580 
	C345.685242,267.340576 345.981140,270.695221 345.656219,273.994415 
	C345.534271,275.232544 344.176056,276.348877 343.381470,277.520752 
	C342.934784,277.263550 342.488129,277.006317 342.041443,276.749115 
	C342.041443,268.993713 342.041443,261.238312 342.041443,254.124680 
	C345.751404,253.594635 349.443298,252.473251 353.033356,252.737167 
	C356.048737,252.958862 358.945496,254.794632 362.286682,256.064789 
	C365.008850,252.680374 369.431763,251.512451 374.217804,253.231842 
	C378.632538,254.817810 380.247681,258.671387 380.270050,263.654816 
z"/>
<path fill="#FFFFFF" opacity="1.000000" stroke="none" 
	d="
M654.921509,248.303436 
	C646.229736,249.528183 642.243408,253.486221 642.100159,260.550751 
	C641.984070,266.277313 645.041199,271.209747 649.716980,272.839874 
	C655.172729,274.741913 661.330322,272.734863 664.893860,268.254730 
	C665.930542,266.951385 667.763855,266.281616 669.501587,265.759613 
	C667.116577,274.639587 659.810120,278.877136 650.764221,277.404449 
	C643.550720,276.230072 638.226257,269.701294 637.970520,261.716888 
	C637.690613,252.977661 642.692688,246.292816 650.812134,244.555283 
	C659.194031,242.761581 666.385925,246.855240 670.254700,256.755829 
	C667.789124,255.491257 666.281860,254.794205 664.849182,253.967911 
	C661.664978,252.131348 658.518005,250.230072 654.921509,248.303436 
z"/>
<path fill="#FFFFFF" opacity="1.000000" stroke="none" 
	d="
M302.086670,273.117249 
	C295.963562,278.008362 289.463501,279.113678 282.725159,275.941254 
	C276.346191,272.937988 273.873199,267.286377 273.965149,260.423126 
	C274.075684,252.171188 279.536804,245.747177 287.540466,244.395905 
	C295.838409,242.994919 302.783508,247.242065 305.099945,256.419098 
	C303.549286,255.420685 301.645081,254.719070 300.512390,253.369766 
	C296.681244,248.805954 291.400055,247.140594 285.813782,249.137146 
	C280.993439,250.859955 277.944794,255.664536 278.100800,261.292603 
	C278.254272,266.830902 281.330383,271.395050 285.920502,272.895081 
	C291.284210,274.647919 297.340881,272.717926 300.699707,268.511261 
	C301.807648,267.123657 303.568848,266.257690 305.031372,265.153259 
	C305.502869,265.593201 305.974396,266.033142 306.445892,266.473083 
	C305.082031,268.604980 303.718140,270.736877 302.086670,273.117249 
z"/>
<path fill="#FFFFFF" opacity="1.000000" stroke="none" 
	d="
M563.813110,273.351044 
	C566.937500,272.859955 569.726562,272.295807 572.451904,271.510468 
	C574.148132,271.021667 575.747925,270.198212 578.287109,269.157806 
	C574.608276,276.600159 568.078186,279.215210 561.530457,276.807068 
	C556.208496,274.849792 552.946960,268.036774 554.409363,261.931976 
	C555.967041,255.429398 561.347473,251.826508 568.236389,252.672974 
	C574.806824,253.480301 578.550232,258.397919 578.441101,266.592224 
	C571.899048,266.592224 565.335266,266.592224 558.771484,266.592224 
	C558.469482,267.071350 558.167480,267.550507 557.865479,268.029633 
	C559.727295,269.747925 561.589111,271.466217 563.813110,273.351044 
M565.032166,256.511047 
	C561.479492,257.143402 559.115723,258.940735 558.555420,262.918152 
	C563.925537,262.918152 568.986389,262.918152 574.404480,262.918152 
	C573.232056,258.068970 570.258362,256.234375 565.032166,256.511047 
z"/>
<path fill="#FFFFFF" opacity="1.000000" stroke="none" 
	d="
M254.540787,255.425354 
	C256.404999,258.953064 258.002869,262.226471 260.103180,266.529175 
	C251.928223,266.529175 245.364426,266.529175 238.551498,266.529175 
	C239.109634,272.047058 242.581253,274.202026 246.734879,273.700165 
	C250.329071,273.265900 253.698395,270.970520 257.756439,269.247559 
	C255.278198,276.556854 247.528732,279.544067 240.940216,276.523865 
	C234.617676,273.625610 232.139954,265.116028 235.703201,258.537903 
	C239.139465,252.194214 247.182846,250.735992 254.540787,255.425354 
M239.648697,259.719940 
	C239.264755,260.706238 238.880829,261.692535 238.401550,262.923767 
	C243.930603,262.923767 248.986649,262.923767 254.090866,262.923767 
	C252.366302,255.759705 246.410645,254.183289 239.648697,259.719940 
z"/>
<path fill="#FFFFFF" opacity="1.000000" stroke="none" 
	d="
M187.526047,271.182617 
	C184.737656,262.534637 186.896667,256.267670 193.265640,253.596176 
	C202.376083,249.774734 210.242966,255.404358 210.529846,266.450470 
	C203.971405,266.450470 197.408936,266.450470 190.770935,266.450470 
	C191.923309,273.611694 198.549210,276.000885 204.165924,271.900665 
	C205.665939,270.805664 207.593384,270.296204 210.389481,269.039185 
	C204.990982,279.642395 194.014771,280.209961 187.526047,271.182617 
M198.491409,263.130432 
	C201.047836,263.130432 203.604248,263.130432 206.614960,263.130432 
	C205.282471,258.435852 202.594635,256.246552 198.622284,256.323364 
	C194.645462,256.400299 191.377167,258.039398 190.431778,263.130432 
	C193.026917,263.130432 195.277435,263.130432 198.491409,263.130432 
z"/>
<path fill="#FFFFFF" opacity="1.000000" stroke="none" 
	d="
M744.267883,257.840942 
	C745.252930,260.728394 746.029053,263.312317 747.018860,266.607422 
	C739.437012,266.607422 732.882446,266.607422 726.093872,266.607422 
	C726.933838,271.928375 730.279236,274.263550 734.508606,273.719025 
	C738.094421,273.257294 741.445496,270.972504 745.530884,269.224731 
	C743.427673,275.247192 739.213257,277.862762 733.478149,277.458252 
	C727.512878,277.037506 723.321899,273.580414 722.136047,268.102203 
	C720.862488,262.218781 723.272034,256.488647 728.066528,253.999023 
	C733.604675,251.123276 739.435303,252.413315 744.267883,257.840942 
M741.799377,262.887268 
	C741.957397,258.403473 738.744934,256.720947 735.292786,256.361755 
	C730.887512,255.903366 727.322876,257.739563 725.999329,263.125214 
	C731.187439,263.125214 736.069336,263.125214 741.799377,262.887268 
z"/>
<path fill="#FFFFFF" opacity="1.000000" stroke="none" 
	d="
M536.476318,273.780579 
	C539.280579,273.046844 541.712158,272.264130 544.114502,271.400177 
	C545.663513,270.843140 547.169556,270.166870 549.416260,269.249512 
	C546.465088,276.397217 540.348938,279.011322 533.487549,276.909607 
	C527.919250,275.203979 524.620605,268.562347 525.990295,261.814545 
	C527.216553,255.773880 532.758362,252.004852 539.428589,252.675049 
	C546.096985,253.345062 549.967163,258.237061 549.863281,266.412109 
	C543.353455,266.412109 536.818848,266.412109 530.102966,266.412109 
	C530.112183,271.016449 532.762817,272.648041 536.476318,273.780579 
M542.732910,257.648590 
	C536.013916,254.806259 531.934509,256.450836 530.119629,262.940002 
	C535.376648,262.940002 540.568665,262.940002 546.703308,262.940002 
	C545.315552,260.956757 544.329102,259.546967 542.732910,257.648590 
z"/>
<path fill="#FFFFFF" opacity="1.000000" stroke="none" 
	d="
M167.782227,252.953796 
	C176.335098,252.203827 180.032196,255.150284 180.693192,263.214935 
	C180.991241,266.851501 180.985840,270.547058 180.680237,274.179047 
	C180.583572,275.327972 179.067932,276.357544 178.201675,277.441742 
	C177.755844,277.157990 177.309998,276.874268 176.864166,276.590546 
	C176.864166,272.624420 176.955566,268.655701 176.841873,264.692841 
	C176.686996,259.295135 174.390411,256.451538 170.274948,256.282288 
	C165.754700,256.096405 162.677002,259.256378 162.420242,264.700134 
	C162.232956,268.670898 162.383591,272.657623 162.383591,276.799652 
	C161.003525,276.799652 159.901459,276.799652 158.529617,276.799652 
	C158.529617,266.288910 158.464340,255.984680 158.626129,245.684006 
	C158.643127,244.601471 159.998795,243.539948 160.733398,242.468658 
	C161.270218,242.715134 161.807053,242.961594 162.343872,243.208054 
	C162.343872,247.090714 162.343872,250.973373 162.343872,255.209152 
	C164.407715,254.318512 165.899033,253.674942 167.782227,252.953796 
z"/>
<path fill="#FFFFFF" opacity="1.000000" stroke="none" 
	d="
M689.500854,276.446655 
	C686.202820,276.682617 683.156433,277.213470 680.338379,276.633850 
	C676.927307,275.932159 674.982483,273.211548 675.175049,269.629639 
	C675.368958,266.022156 677.633789,263.879181 681.133423,263.291504 
	C683.084595,262.963867 685.107971,263.039398 687.100220,262.991486 
	C688.921997,262.947632 690.745728,262.982178 692.554199,262.982178 
	C692.805359,258.127899 690.806458,255.447845 686.613403,256.192413 
	C683.378601,256.766876 680.415527,258.870789 676.962158,260.465302 
	C678.023621,254.903076 681.423584,252.436707 686.976440,252.598969 
	C692.718506,252.766754 696.616394,255.840210 696.917786,261.025116 
	C697.215942,266.153503 696.982910,271.312744 696.982910,276.636536 
	C694.456726,278.072113 692.291199,272.591949 689.500854,276.446655 
M688.304626,273.045227 
	C690.103149,271.138977 691.901672,269.232697 693.700195,267.326447 
	C689.480957,266.197113 686.294800,265.821350 683.268127,266.353455 
	C681.722656,266.625183 680.463379,268.525024 679.074707,269.688934 
	C680.308044,271.016907 681.321289,272.816040 682.842896,273.527039 
	C684.111023,274.119568 685.975525,273.435699 688.304626,273.045227 
z"/>
<path fill="#FFFFFF" opacity="1.000000" stroke="none" 
	d="
M415.564758,252.708618 
	C423.247040,252.759415 427.147552,255.010223 429.069427,260.230225 
	C431.015015,265.514496 429.838837,270.921906 425.993011,274.373535 
	C422.356476,277.637360 415.405853,278.458740 411.090363,276.134705 
	C406.431183,273.625580 404.203278,268.995819 404.831970,263.129242 
	C405.426453,257.581818 408.555145,254.446030 415.564758,252.708618 
M408.618896,264.585571 
	C408.679077,268.299133 409.758606,271.427948 413.468536,273.051727 
	C418.302399,275.167450 423.527893,273.144806 425.426544,268.421356 
	C427.353912,263.626434 424.952393,258.427277 420.080231,256.846802 
	C414.667297,255.090912 410.372009,257.693970 408.618896,264.585571 
z"/>
<path fill="#FFFFFF" opacity="1.000000" stroke="none" 
	d="
M319.119568,277.015137 
	C311.817261,273.497650 309.250092,268.572784 310.821808,261.782104 
	C312.121582,256.166351 316.643097,252.678192 322.783600,252.554031 
	C330.146057,252.405182 335.474335,257.376373 335.793823,264.692352 
	C336.101379,271.734497 330.801086,277.236298 323.456299,277.418213 
	C322.142303,277.450775 320.821014,277.190369 319.119568,277.015137 
M330.070374,270.478607 
	C330.513092,269.590454 331.102631,268.744598 331.373108,267.806763 
	C332.558990,263.694824 331.587036,260.136505 327.937500,257.795929 
	C324.157135,255.371414 320.166016,255.704468 316.913483,258.711548 
	C313.577728,261.795624 313.416870,265.740936 315.532959,269.663910 
	C318.218170,274.641907 324.067566,275.197113 330.070374,270.478607 
z"/>
<path fill="#FFFFFF" opacity="1.000000" stroke="none" 
	d="
M612.982788,262.998596 
	C615.104065,263.678589 617.262085,263.839050 618.439636,264.996796 
	C620.275269,266.801575 622.773376,269.445465 622.530273,271.432800 
	C622.279297,273.484375 619.398315,276.078735 617.126526,276.858765 
	C609.904907,279.338348 604.046570,276.126312 603.022461,268.727142 
	C604.802429,269.852722 605.962158,270.553192 607.086792,271.306152 
	C608.285461,272.108704 609.354797,273.433838 610.649963,273.696716 
	C613.710205,274.317871 617.787476,275.079193 618.683960,271.194305 
	C619.544006,267.467560 615.495850,267.380798 612.856567,266.654755 
	C611.259827,266.215576 609.314636,266.113922 608.184265,265.115479 
	C606.248779,263.405975 603.336365,260.916840 603.572205,259.113007 
	C603.865906,256.866547 606.569153,253.973297 608.877014,253.134567 
	C615.463135,250.741043 620.454407,253.434509 622.441528,260.371887 
	C620.638672,259.674164 619.305298,259.307587 618.129333,258.656647 
	C617.155334,258.117493 616.286133,256.551208 615.511047,256.641846 
	C612.772339,256.962158 608.388489,257.065002 607.733826,258.586456 
	C606.182861,262.191467 610.363525,261.994293 612.982788,262.998596 
z"/>
<path fill="#FFFFFF" opacity="1.000000" stroke="none" 
	d="
M398.195374,242.195435 
	C400.065552,242.763641 401.535034,243.371201 403.004486,243.978775 
	C402.905212,244.517532 402.805969,245.056305 402.706726,245.595062 
	C398.435760,246.281799 392.695526,245.281143 394.270660,252.813507 
	C396.610565,252.813507 399.070129,252.813507 401.479980,252.813507 
	C402.176514,256.425568 402.176514,256.425568 394.082397,257.224579 
	C394.082397,263.614441 394.082397,270.046417 394.082397,276.658447 
	C391.344818,277.368927 389.844269,277.306488 389.973816,273.964630 
	C390.185730,268.499298 390.031128,263.019745 390.031128,257.948151 
	C387.952789,256.792694 386.146515,255.788452 384.340210,254.784225 
	C384.545868,254.289734 384.751526,253.795242 384.957184,253.300751 
	C386.539032,253.115494 388.120911,252.930237 389.668488,252.748993 
	C390.619049,244.722244 391.422241,243.694717 398.195374,242.195435 
z"/>
<path fill="#FFFFFF" opacity="1.000000" stroke="none" 
	d="
M590.351318,266.813782 
	C590.390991,270.934601 591.544678,273.359497 595.865784,273.273407 
	C596.865356,273.253510 597.896240,274.803894 599.839111,276.386139 
	C589.308838,277.697968 586.613708,275.336670 586.511902,266.445953 
	C586.477844,263.472931 586.506531,260.499146 586.506531,257.202118 
	C585.167664,257.054352 584.011108,257.099365 582.990295,256.748932 
	C582.384460,256.540924 581.682251,255.756317 581.590515,255.145752 
	C581.496338,254.519196 582.130859,253.179550 582.381592,253.195099 
	C586.233276,253.434250 587.072571,250.989471 587.505066,247.925842 
	C587.557800,247.552322 588.794861,247.345993 589.913818,246.884552 
	C590.183289,249.048370 590.399780,250.786057 590.656433,252.846832 
	C592.959229,252.846832 595.225037,252.846832 597.448792,252.846832 
	C597.841125,256.064331 597.841125,256.064331 590.349426,257.457184 
	C590.349426,260.385834 590.349426,263.361786 590.351318,266.813782 
z"/>
<path fill="#FFFFFF" opacity="1.000000" stroke="none" 
	d="
M457.331787,270.221954 
	C457.260193,265.667938 457.260193,261.535767 457.260193,258.147339 
	C454.966644,256.804260 453.288300,255.821442 452.296356,255.240570 
	C455.477051,251.934921 457.829468,249.490128 460.693268,246.513824 
	C460.931946,248.873627 461.104828,250.582718 461.325989,252.768951 
	C463.604736,252.768951 466.011292,252.768951 468.379089,252.768951 
	C468.690308,256.636993 468.690308,256.636993 461.741974,257.056854 
	C459.199402,269.219330 460.709595,272.786438 468.669464,273.301056 
	C469.812378,275.922852 469.396851,277.175903 466.086639,277.101562 
	C461.508667,276.998840 458.422882,275.322754 457.331787,270.221954 
z"/>
<path fill="#FFFFFF" opacity="1.000000" stroke="none" 
	d="
M223.070282,254.390045 
	C225.628799,253.638474 227.845749,253.158401 230.062714,252.678329 
	C230.436935,253.123245 230.811172,253.568176 231.185394,254.013092 
	C230.208908,254.963150 229.358383,256.530029 228.234741,256.759491 
	C222.513702,257.927765 221.047501,259.424805 220.803299,265.347473 
	C220.728348,267.165497 220.773773,268.988556 220.769745,270.809326 
	C220.765747,272.620850 220.768860,274.432373 220.768860,276.659576 
	C219.438095,276.769897 218.257248,276.867767 216.932343,276.977570 
	C216.932343,268.894409 216.932343,261.146790 216.932343,253.060089 
	C218.991074,253.628876 220.859894,254.145203 223.070282,254.390045 
z"/>
<path fill="#FFFFFF" opacity="1.000000" stroke="none" 
	d="
M704.148621,258.236542 
	C704.148621,256.287720 704.148621,254.808685 704.148621,251.940781 
	C706.258850,253.551895 707.518311,254.513504 708.039246,254.911224 
	C711.360291,254.281418 714.473999,253.661331 717.613708,253.231110 
	C717.713013,253.217499 718.080200,255.158524 718.324768,256.198029 
	C708.769470,258.097382 708.769470,258.097382 707.991943,276.588593 
	C705.667725,277.429840 704.027161,277.572235 704.115173,274.123474 
	C704.246277,268.987488 704.148804,263.845642 704.148621,258.236542 
z"/>
<path fill="#FFFFFF" opacity="1.000000" stroke="none" 
	d="
M444.693665,257.215424 
	C442.862305,259.940735 440.858521,262.390411 440.140076,265.172028 
	C439.416534,267.973419 440.204956,271.132751 439.853119,274.078186 
	C439.705078,275.317719 438.330902,276.410858 437.514069,277.570526 
	C437.085449,277.309265 436.656860,277.048035 436.228241,276.786774 
	C436.228241,269.037109 436.228241,261.287445 436.228241,252.328888 
	C437.995850,253.630005 439.239044,254.545120 440.200592,255.252914 
	C443.053619,254.354294 446.105713,253.392975 449.229767,252.408981 
	C451.549774,258.213318 447.115295,256.380432 444.693665,257.215424 
z"/>
<path fill="none" opacity="1.000000" stroke="none" 
	d="
M177.654755,171.153595 
	C173.980698,156.649826 175.589569,143.368011 185.888351,132.596924 
	C195.066986,122.997368 206.777847,120.736916 219.467712,124.545242 
	C232.720428,128.522491 239.540298,138.320938 241.979462,151.267227 
	C244.419525,164.218338 241.685715,176.189972 232.479538,186.002548 
	C218.097824,201.331558 185.537384,198.928146 177.654755,171.153595 
z"/>
<path fill="none   " opacity="1.000000" stroke="none" 
	d="
M743.699768,136.380157 
	C752.734741,151.227631 753.025391,166.135666 744.408508,180.617874 
	C737.009949,193.052444 724.890198,196.906464 711.201843,194.854187 
	C698.437622,192.940430 689.706909,185.157776 685.934448,172.808945 
	C681.431091,158.067627 682.687927,143.795105 693.889709,132.312637 
	C707.850647,118.001923 731.257385,120.107719 743.699768,136.380157 
z"/>
<path fill="none" opacity="1.000000" stroke="none" 
	d="
M565.410278,256.426086 
	C570.258362,256.234375 573.232056,258.068970 574.404480,262.918152 
	C568.986389,262.918152 563.925537,262.918152 558.555420,262.918152 
	C559.115723,258.940735 561.479492,257.143402 565.410278,256.426086 
z"/>
<path fill="none" opacity="1.000000" stroke="none" 
	d="
M239.906128,259.381897 
	C246.410645,254.183289 252.366302,255.759705 254.090866,262.923767 
	C248.986649,262.923767 243.930603,262.923767 238.401550,262.923767 
	C238.880829,261.692535 239.264755,260.706238 239.906128,259.381897 
z"/>
<path fill="none" opacity="1.000000" stroke="none" 
	d="
M198.009674,263.130432 
	C195.277435,263.130432 193.026917,263.130432 190.431778,263.130432 
	C191.377167,258.039398 194.645462,256.400299 198.622284,256.323364 
	C202.594635,256.246552 205.282471,258.435852 206.614960,263.130432 
	C203.604248,263.130432 201.047836,263.130432 198.009674,263.130432 
z"/>
<path fill="none" opacity="1.000000" stroke="none" 
	d="
M741.375366,263.006226 
	C736.069336,263.125214 731.187439,263.125214 725.999329,263.125214 
	C727.322876,257.739563 730.887512,255.903366 735.292786,256.361755 
	C738.744934,256.720947 741.957397,258.403473 741.375366,263.006226 
z"/>
<path fill="none" opacity="1.000000" stroke="none" 
	d="
M543.037720,257.892883 
	C544.329102,259.546967 545.315552,260.956757 546.703308,262.940002 
	C540.568665,262.940002 535.376648,262.940002 530.119629,262.940002 
	C531.934509,256.450836 536.013916,254.806259 543.037720,257.892883 
z"/>
<path fill="none" opacity="1.000000" stroke="none" 
	d="
M687.940308,273.181152 
	C685.975525,273.435699 684.111023,274.119568 682.842896,273.527039 
	C681.321289,272.816040 680.308044,271.016907 679.074707,269.688965 
	C680.463379,268.525024 681.722656,266.625183 683.268127,266.353455 
	C686.294800,265.821350 689.480957,266.197113 693.700195,267.326447 
	C691.901672,269.232697 690.103149,271.138977 687.940308,273.181152 
z"/>
<path fill="none" opacity="1.000000" stroke="none" 
	d="
M408.651489,264.169373 
	C410.372009,257.693970 414.667297,255.090912 420.080231,256.846802 
	C424.952393,258.427277 427.353912,263.626434 425.426544,268.421356 
	C423.527893,273.144806 418.302399,275.167450 413.468536,273.051727 
	C409.758606,271.427948 408.679077,268.299133 408.651489,264.169373 
z"/>
<path fill="none" opacity="1.000000" stroke="none" 
	d="
M329.852142,270.793823 
	C324.067566,275.197113 318.218170,274.641907 315.532959,269.663910 
	C313.416870,265.740936 313.577728,261.795624 316.913483,258.711548 
	C320.166016,255.704468 324.157135,255.371414 327.937500,257.795929 
	C331.587036,260.136505 332.558990,263.694824 331.373108,267.806763 
	C331.102631,268.744598 330.513092,269.590454 329.852142,270.793823 
z"/>
</svg>